<?xml version="1.0" encoding="UTF-8"?>
<!DOCTYPE svg PUBLIC "-//W3C//DTD SVG 1.1//EN" "http://www.w3.org/Graphics/SVG/1.1/DTD/svg11.dtd">
<!-- Creator: CorelDRAW 2019 (64-Bit) -->
<svg xmlns="http://www.w3.org/2000/svg" xml:space="preserve" width="77.4651mm" height="50mm" version="1.1" style="shape-rendering:geometricPrecision; text-rendering:geometricPrecision; image-rendering:optimizeQuality; fill-rule:evenodd; clip-rule:evenodd"
viewBox="0 0 7299.83 4711.69"
 xmlns:xlink="http://www.w3.org/1999/xlink">
 <defs>
  <style type="text/css">
   <![CDATA[
    .fil1 {fill:#017931}
    .fil0 {fill:#3D4A3E}
   ]]>
  </style>
 </defs>
 <g id="Layer_x0020_1">
  <metadata id="CorelCorpID_0Corel-Layer"/>
  <path class="fil0" d="M43.04 2615.33c115.19,593.36 700.32,1127.41 1080.75,1377.3 1139.52,748.5 2754.71,795.06 4115.14,659.02 357.93,-35.79 710.16,-91.97 1036.04,-199.1 226.6,-74.5 770.58,-301.23 595.79,-553.74 -124.23,-54.74 -900.14,70.91 -1137.82,72.83 -393.28,3.18 -781.6,-39.1 -1156.36,-109.32 -459.31,-86.06 -1722.33,-393.31 -1787.42,-746.39 338.51,-24.9 702.82,113.73 1078.24,98.36 318.85,-13.05 762.35,-173.79 707.51,-475.59 -100.66,-41.63 -441.14,-74.57 -580.06,-104.3 -198.52,-42.5 -360.6,-83.84 -548.85,-136.36 -903.83,-252.2 -1246.95,-453.63 -2344.09,-222.41 -424.19,89.39 -705.88,230.58 -1058.88,339.71z"/>
  <path class="fil1" d="M1859.7 1150.38c-83.39,-242.14 336.63,-485.1 518.65,-583.71 456.24,-247.19 1505.99,-320.6 1927.38,-49.26 167.03,107.55 507.43,418.56 438.3,629.59 -148.49,56.83 -2714.73,59 -2884.33,3.38zm-1859.7 1146.23c458.16,-137 780.04,-295.07 1324.07,-374.67 1369.87,-200.43 1749.32,245.12 2885.53,441.33 270.98,46.79 499.69,25.84 633.51,218.89 184.86,266.71 -37.77,439.14 -94.5,606.56l369.4 0c37.06,-370.9 18.66,-455.81 210.88,-720.13 331.93,-456.45 1205.65,-503.83 1550.86,162.26 58.88,113.61 62.02,262.5 115.66,378.11 280.68,-23.44 305.5,-211.95 304.39,-493.09 -3.56,-895.32 -150.23,-1105.07 -1137.51,-1278.63 -226.83,-39.87 -451.5,-80.03 -678.47,-117.47 -290.3,-47.9 -205.15,-33.34 -464.07,-356.49 -233.15,-291 -437.03,-586.68 -908.34,-708.4 -276.22,-71.33 -1227.48,-66.61 -1530.69,-22.93 -504.27,72.64 -803.38,264.77 -1113.64,501.45 -136.13,103.84 -274.62,275.75 -375.58,418.14 -288.27,406.58 -95.78,133.3 -456.98,366.64 -269.24,173.94 -565.39,517.95 -634.52,978.45z"/>
  <path class="fil1" d="M5931.71 2842.43c321.87,-174.34 506.69,264.49 249.39,422.5 -119.63,73.47 -282.5,25.24 -338.88,-64.67 -60.52,-96.51 -80.98,-265.49 89.49,-357.83zm-44.06 -531.4c-363.56,69.92 -681.8,442.63 -583.49,907.83 74.97,354.77 451.89,677.55 916.44,578.27 927.99,-198.32 713.41,-1687.35 -332.95,-1486.1z"/>
 </g>
</svg>
